<svg width="64" height="64" viewBox="0 0 64 64" fill="none" xmlns="http://www.w3.org/2000/svg">
<rect width="64" height="64" rx="12" fill="#10B981"/>
<path d="M41 22C41 19.7909 39.2091 18 37 18C34.7909 18 33 19.7909 33 22V36C33 38.2091 34.7909 40 37 40H38V50C38 52.7614 35.7614 55 33 55C30.2386 55 28 52.7614 28 50C28 47.2386 30.2386 45 33 45H37V22Z" fill="white"/>
<path d="M35 14C35 11.7909 33.2091 10 31 10C28.7909 10 27 11.7909 27 14V28C27 30.2091 28.7909 32 31 32H32V42C32 44.7614 29.7614 47 27 47C24.2386 47 22 44.7614 22 42C22 39.2386 24.2386 37 27 37H31V14Z" fill="white"/>
</svg>